# xmcd
#
# Track frame offsets:
#	182
#	22227
#	39230
#	76367
#	97022
#	124887
#	160012
#	186020
#	223507
#	264765
#
# Disc length: 4292 seconds
#
# Revision: 1
# Processed by: cddbd v1.4PL0 Copyright (c) Steve Scherf et al.
# Submitted via: audiograbber 1.81.03
#
DISCID=7d10c20a
DTITLE=Bobby Womack - Live
DYEAR=1900
DGENRE=
TTITLE0=Woman's Gotta Have It
TTITLE1=That's The Way I Feel About Cha
TTITLE2=Inherit The Wind
TTITLE3=You're Welcome Stop On By (With Paul Young)
TTITLE4=It's All Over Now
TTITLE5=I Wish He Didn't Trust Me So Much
TTITLE6=Harry Hippie
TTITLE7=No Matter How High I Get
TTITLE8=Love Has Finally Come
TTITLE9=I Can Understand It
EXTD=
EXTT0=
EXTT1=
EXTT2=
EXTT3=
EXTT4=
EXTT5=
EXTT6=
EXTT7=
EXTT8=
EXTT9=
PLAYORDER=
